# xmcd
#
# Track frame offsets: 
#        150
#        16019
#        31864
#        45605
#        62483
#        76801
#        87573
#        103104
#        118227
#        133609
#
# Disc length: 2024 seconds
#
# Revision: 5
# Processed by: cddbd v1.5.2PL0 Copyright (c) Steve Scherf et al.
# Submitted via: ExactAudioCopy v0.99pb5
#
DISCID=7707e60a
DTITLE=Sharon Jones and The Dap-Kings - Give The People What They Want
DYEAR=2014
DGENRE=Soul
TTITLE0=Retreat!
TTITLE1=Stranger to My Happiness
TTITLE2=We Get Along
TTITLE3=You'll Be Lonely
TTITLE4=Now I See
TTITLE5=Making Up and Breaking Up (And Making Up and Breaking Up Over 
TTITLE5=Again)
TTITLE6=Get Up and Get Out
TTITLE7=Long Time, Wrong Time
TTITLE8=People Don't Get What They Deserve
TTITLE9=Slow Down, Love
EXTD=
EXTT0=
EXTT1=
EXTT2=
EXTT3=
EXTT4=
EXTT5=
EXTT6=
EXTT7=
EXTT8=
EXTT9=
PLAYORDER=
